<svg height="100%" width="100%" id="svg" viewBox="0 0 1440 600" xmlns="http://www.w3.org/2000/svg" class="transition duration-300 ease-in-out delay-150"><defs><linearGradient id="gradient"><stop offset="5%" stop-color="#fcb90066"></stop><stop offset="95%" stop-color="#ff690066"></stop></linearGradient></defs><path d="M 0,600 C 0,600 0,150 0,150 C 92.66985645933013,156.9665071770335 185.33971291866027,163.93301435406698 274,177 C 362.66028708133973,190.06698564593302 447.311004784689,209.23444976076556 536,199 C 624.688995215311,188.76555023923444 717.4162679425835,149.1291866028708 822,137 C 926.5837320574165,124.8708133971292 1043.0239234449762,140.2488038277512 1148,147 C 1252.9760765550238,153.7511961722488 1346.4880382775118,151.8755980861244 1440,150 C 1440,150 1440,600 1440,600 Z" stroke="none" stroke-width="0" fill="url(#gradient)" class="transition-all duration-300 ease-in-out delay-150"></path><defs><linearGradient id="gradient"><stop offset="5%" stop-color="#fcb90088"></stop><stop offset="95%" stop-color="#ff690088"></stop></linearGradient></defs><path d="M 0,600 C 0,600 0,300 0,300 C 93.20574162679426,322.14354066985646 186.41148325358853,344.2870813397129 271,347 C 355.58851674641147,349.7129186602871 431.5598086124402,332.9952153110048 546,310 C 660.4401913875598,287.0047846889952 813.3492822966508,257.73205741626793 907,267 C 1000.6507177033492,276.26794258373207 1035.043062200957,324.07655502392345 1114,336 C 1192.956937799043,347.92344497607655 1316.4784688995214,323.9617224880383 1440,300 C 1440,300 1440,600 1440,600 Z" stroke="none" stroke-width="0" fill="url(#gradient)" class="transition-all duration-300 ease-in-out delay-150"></path><defs><linearGradient id="gradient"><stop offset="5%" stop-color="#fcb900ff"></stop><stop offset="95%" stop-color="#ff6900ff"></stop></linearGradient></defs><path d="M 0,600 C 0,600 0,450 0,450 C 91.25358851674642,455.1578947368421 182.50717703349284,460.3157894736842 287,454 C 391.49282296650716,447.6842105263158 509.22488038277504,429.8947368421052 600,444 C 690.775119617225,458.1052631578948 754.5933014354067,504.10526315789474 848,505 C 941.4066985645933,505.89473684210526 1064.4019138755982,461.6842105263158 1168,445 C 1271.5980861244018,428.3157894736842 1355.7990430622008,439.1578947368421 1440,450 C 1440,450 1440,600 1440,600 Z" stroke="none" stroke-width="0" fill="url(#gradient)" class="transition-all duration-300 ease-in-out delay-150"></path></svg>